<?xml version="1.0" encoding="UTF-8"?>
<svg id="Capa_1" xmlns="http://www.w3.org/2000/svg" viewBox="0 0 563.63 708.19">
  <defs>
    <style>
      .cls-1 {
        fill: #e2e6e7;
      }
    </style>
  </defs>
  <path class="cls-1" d="M531.8,8.53c15.53,7.3,25.44,17.82,29.74,31.52,4.31,13.71,1.94,30.14-7.06,49.3-4.38,9.32-12.04,22.93-23,40.86-10.94,17.92-24.2,38.71-39.76,62.37-15.54,23.66-32.02,48.62-49.43,74.89-17.4,26.26-35.01,52.28-52.81,78.04-17.8,25.76-34.42,50.02-49.87,72.79-15.44,22.75-28.79,42.08-40.05,57.96-11.26,15.88-19.1,27.2-23.55,33.96l-2.39-35.25,23.13,83.88c-17.8,4.27-36.38,5.48-55.76,3.65-19.36-1.84-35.77-5.91-49.23-12.25-12.93-6.08-21.5-13.75-25.7-22.98-4.19-9.24-3.48-19.82,2.11-31.72,4.14-8.81,12.46-22.11,24.95-39.94,12.5-17.83,27.48-38.6,44.94-62.3,17.47-23.71,36.37-49.43,56.67-77.17,20.32-27.75,40.37-55.92,60.14-84.55,19.78-28.62,38.17-56.64,55.16-84.04,17.01-27.41,30.97-52.75,41.92-76.05,5.84-12.42,9.82-22.56,11.93-30.42,2.13-7.86,3.1-14.66,2.96-20.41-.14-5.75-1.04-11.56-2.72-17.4,11.45-2.83,23.13-3.82,35.05-2.96,11.92.86,22.8,3.61,32.63,8.23ZM158.98,350.1c-13.71.68-22.99-1.56-27.83-6.77-4.85-5.19-7.49-12.36-7.95-21.51-.4-7.99.33-16.34,2.19-25.02,1.85-8.68,4.58-17.12,8.19-25.32,6.39,1.98,13.35,3.63,20.87,4.97,7.5,1.34,15.26,1.82,23.27,1.42s16.53-1.54,25.6-3.43c9.06-1.88,17.27-3.87,24.62-5.95l5.1,16.07c-17.59-8.28-32.11-17.86-43.53-28.75-11.43-10.88-19.9-22.77-25.41-35.67-5.52-12.89-8.6-25.91-9.25-39.06-.66-13.14,1.07-24.24,5.21-33.33,4.12-9.08,9.9-16.82,17.31-23.2,7.41-6.38,16.2-11.12,26.35-14.2,10.16-3.08,21.23-4.93,33.23-5.52,10.85-.54,22.33-.11,34.43,1.29,12.1,1.41,23.39,3.99,33.89,7.76,10.5,3.77,19.18,8.64,26.07,14.59,6.87,5.97,10.52,12.94,10.92,20.93-.2,7.46-3.54,15.08-10.03,22.84-6.49,7.77-17.2,11.17-32.14,10.2-9.2-.68-17.23-3.72-24.08-9.11-6.86-5.38-12.18-11.7-15.98-18.96-12.54,1.2-22.35,5.71-29.39,13.49-7.06,7.8-10.26,18.27-9.6,31.41.49,9.72,2.94,18.9,7.39,27.55,4.43,8.66,10.28,16.67,17.52,24.04,7.24,7.37,15.32,14.27,24.23,20.7l-43.1-3c23.1-7.45,40.84-13.64,53.19-18.55,12.35-4.91,25.39-7.71,39.1-8.4,13.71-.68,22.96,1.15,27.76,5.49,4.8,4.35,7.44,11.37,7.93,21.08.88,17.71-2.28,34.77-9.47,51.16-6.41-1.96-13.36-3.48-20.84-4.54-7.5-1.05-15.83-1.36-24.96-.9-18.29.91-35.59,4.22-51.91,9.89-16.33,5.69-31.65,11.33-45.98,16.9-14.33,5.59-28.64,8.73-42.91,9.44ZM57.5,68.97c16.82-3.39,31.05-.85,42.67,7.61,11.63,8.45,19.52,23.05,23.69,43.81,2.03,10.09,3.99,25.59,5.86,46.52,1.88,20.91,3.62,45.51,5.22,73.78,1.61,28.26,3.25,58.12,4.9,89.6,1.67,31.46,3.02,62.84,4.07,94.14,1.05,31.3,2.15,60.68,3.3,88.17,1.15,27.47,1.94,50.95,2.36,70.42.41,19.46.86,33.22,1.31,41.31l-22.92-26.9,68.55,53.6c-11.75,14.03-25.96,26.08-42.61,36.14-16.64,10.05-32.25,16.55-46.84,19.49-14.01,2.82-25.46,1.76-34.33-3.16-8.87-4.93-14.6-13.84-17.2-26.73-1.92-9.54-3.17-25.18-3.76-46.94-.58-21.76-.92-47.38-1.02-76.81-.09-29.45-.23-61.37-.45-95.74-.21-34.39-.89-68.96-2.06-103.74-1.16-34.78-3.08-68.23-5.76-100.36-2.67-32.15-6.55-60.82-11.63-86.05-2.71-13.46-5.55-23.98-8.54-31.54-2.97-7.58-6.24-13.62-9.78-18.16-3.54-4.54-7.72-8.66-12.55-12.35,7.51-9.09,16.3-16.85,26.39-23.25,10.09-6.41,20.47-10.68,31.11-12.83Z"/>
</svg>