<?xml version="1.0" encoding="UTF-8"?>
<svg id="Capa_1" xmlns="http://www.w3.org/2000/svg" viewBox="0 0 603.94 823.42">
  <defs>
    <style>
      .cls-1 {
        fill: #e2e6e7;
      }
    </style>
  </defs>
  <path class="cls-1" d="M549.51,0c17.16.13,30.57,5.53,40.21,16.18,9.65,10.65,14.39,26.56,14.23,47.73-.08,10.3-1.33,25.86-3.78,46.73-2.44,20.86-5.77,45.28-9.99,73.29-4.21,27.99-8.72,57.56-13.54,88.7-4.81,31.13-9.9,62.13-15.28,92.98-5.38,30.85-10.32,59.84-14.81,86.98-4.49,27.13-8.53,50.26-12.1,69.41-3.58,19.13-5.96,32.69-7.17,40.7l-16.93-31.02,56.13,66.49c-14.38,11.33-30.75,20.21-49.11,26.66-18.35,6.43-34.96,9.6-49.84,9.49s-25.29-3.49-32.96-10.11c-7.67-6.64-11.46-16.54-11.36-29.69.07-9.73,2.06-25.3,5.93-46.72,3.89-21.42,8.79-46.56,14.72-75.4,5.94-28.85,12.33-60.12,19.15-93.81,6.84-33.71,13.24-67.68,19.21-101.96,5.98-34.28,10.95-67.42,14.9-99.42,3.97-32.01,6.03-60.87,6.23-86.61.1-13.73-.53-24.61-1.9-32.62-1.36-8.03-3.32-14.61-5.86-19.78-2.53-5.17-5.78-10.06-9.76-14.66,9.21-7.36,19.4-13.15,30.59-17.36C527.61,1.98,538.65-.08,549.51,0ZM353.95,466.29c-12.16,6.36-21.53,8.21-28.11,5.5-6.58-2.69-11.98-8.09-16.22-16.21-3.71-7.09-6.55-14.97-8.49-23.64-1.96-8.66-3.01-17.46-3.17-26.42,6.63-.88,13.64-2.29,21.03-4.22,7.38-1.92,14.62-4.74,21.72-8.46s14.37-8.32,21.81-13.83c7.44-5.5,14.06-10.74,19.86-15.71l11.36,12.46c-19.44-.15-36.64-2.77-51.57-7.88-14.93-5.09-27.61-12.34-38.01-21.76-10.41-9.4-18.65-19.93-24.76-31.59-6.1-11.65-9.18-22.46-9.23-32.45-.06-9.97,1.95-19.42,6.01-28.32,4.06-8.9,10.05-16.88,17.98-23.93,7.93-7.05,17.22-13.36,27.86-18.93,9.62-5.03,20.23-9.45,31.8-13.25,11.58-3.79,22.91-6.18,34.02-7.15,11.11-.97,21.04-.19,29.79,2.33,8.74,2.54,14.97,7.34,18.68,14.43,2.94,6.86,3.1,15.17.46,24.94-2.63,9.77-10.94,17.34-24.92,22.71-8.64,3.23-17.21,3.84-25.68,1.81-8.48-2.01-15.96-5.52-22.45-10.53-10.89,6.35-17.9,14.54-21.04,24.56-3.15,10.04-1.66,20.89,4.43,32.54,4.51,8.62,10.59,15.93,18.25,21.93,7.65,6.01,16.32,10.83,25.98,14.49,9.66,3.66,19.88,6.54,30.67,8.65l-40.4,15.32c17.86-16.44,31.37-29.48,40.54-39.12,9.16-9.63,19.83-17.63,31.99-24,12.16-6.36,21.33-8.57,27.51-6.64,6.18,1.94,11.52,7.21,16.03,15.83,8.22,15.72,12.49,32.53,12.82,50.42-6.64.9-13.59,2.43-20.83,4.6-7.25,2.19-14.94,5.39-23.04,9.63-16.23,8.49-30.55,18.73-43,30.72-12.45,12.01-24,23.54-34.68,34.6-10.67,11.07-22.35,19.92-35.01,26.54ZM144.09,253.48c13.86-10.12,27.84-13.77,41.93-10.96,14.1,2.8,27.38,12.76,39.86,29.86,6.07,8.32,14.34,21.57,24.8,39.79,10.47,18.2,22.34,39.81,35.63,64.81,13.29,24.99,27.28,51.42,41.97,79.31,14.69,27.87,29.06,55.81,43.11,83.79,14.05,27.98,27.36,54.21,39.92,78.68,12.55,24.47,23.09,45.45,31.62,62.96,8.52,17.5,14.69,29.81,18.49,36.96l-32.07-14.83,84.69,19.97c-4.8,17.66-12.65,34.55-23.56,50.67-10.91,16.1-22.36,28.54-34.37,37.31-11.54,8.43-22.39,12.26-32.5,11.51-10.12-.76-19.06-6.46-26.81-17.08-5.74-7.86-13.42-21.54-23.07-41.06-9.64-19.52-20.67-42.64-33.09-69.33-12.41-26.71-25.91-55.63-40.5-86.76-14.59-31.15-29.68-62.26-45.3-93.34-15.61-31.09-31.37-60.68-47.25-88.73-15.88-28.08-31.42-52.49-46.59-73.28-8.09-11.09-15.08-19.45-20.96-25.07-5.87-5.64-11.37-9.76-16.49-12.4-5.11-2.64-10.64-4.63-16.57-5.96,3.02-11.4,7.75-22.12,14.23-32.17,6.48-10.04,14.12-18.27,22.89-24.67ZM19.01,580.61,0,541.79"/>
</svg>