<?xml version="1.0" encoding="UTF-8"?>
<svg id="Capa_1" xmlns="http://www.w3.org/2000/svg" viewBox="0 0 666.74 799">
  <defs>
    <style>
      .cls-1 {
        fill: #fff;
      }
    </style>
  </defs>
  <path class="cls-1" d="M620.56.93c16.97,2.55,29.48,9.79,37.52,21.69,8.05,11.91,10.49,28.33,7.34,49.26-1.53,10.18-4.98,25.42-10.35,45.73-5.36,20.3-12.11,44.01-20.24,71.14-8.12,27.11-16.76,55.75-25.94,85.9-9.16,30.14-18.59,60.11-28.27,89.89-9.68,29.78-18.67,57.78-26.95,84.01-8.28,26.22-15.55,48.55-21.79,67-6.24,18.43-10.52,31.52-12.85,39.28l-12.37-33.1,46.17,73.75c-15.83,9.18-33.29,15.67-52.38,19.45-19.07,3.77-35.96,4.57-50.68,2.36-14.13-2.13-24.54-7.03-31.2-14.67-6.66-7.66-9.01-17.99-7.05-30.99,1.45-9.62,5.61-24.75,12.47-45.41,6.88-20.66,15.29-44.85,25.23-72.56,9.96-27.72,20.7-57.77,32.22-90.16,11.53-32.4,22.68-65.13,33.43-98.22,10.77-33.09,20.37-65.2,28.8-96.32,8.45-31.13,14.58-59.41,18.4-84.86,2.04-13.58,2.96-24.43,2.73-32.56-.21-8.14-1.22-14.93-3-20.41-1.78-5.47-4.3-10.77-7.59-15.89,10.16-5.98,21.07-10.28,32.74-12.86,11.67-2.58,22.88-3.06,33.62-1.45ZM361.07,434.91c-12.94,4.58-22.48,5.08-28.6,1.48-6.13-3.59-10.71-9.7-13.77-18.34-2.67-7.54-4.36-15.75-5.07-24.6-.71-8.85-.51-17.71.6-26.61,6.69.06,13.83-.34,21.42-1.21,7.57-.86,15.14-2.63,22.7-5.3,7.54-2.67,15.4-6.2,23.55-10.61,8.15-4.39,15.44-8.65,21.88-12.75l9.48,13.94c-19.23-2.9-35.88-7.92-49.94-15.09-14.06-7.15-25.58-16.12-34.55-26.91-8.97-10.78-15.65-22.36-20.04-34.77-4.39-12.4-5.91-23.53-4.55-33.43,1.35-9.88,4.67-18.95,9.95-27.18,5.28-8.24,12.34-15.29,21.18-21.15,8.85-5.86,18.93-10.8,30.26-14.8,10.24-3.62,21.37-6.49,33.36-8.62,11.99-2.11,23.56-2.88,34.69-2.27,11.14.61,20.85,2.79,29.16,6.52,8.29,3.75,13.79,9.38,16.46,16.93,1.94,7.21.92,15.46-3.07,24.75-3.99,9.3-13.29,15.62-27.88,18.97-9.01,1.98-17.58,1.37-25.68-1.84-8.11-3.19-15.02-7.72-20.74-13.59-11.67,4.74-19.78,11.86-24.3,21.34-4.53,9.5-4.6,20.44-.21,32.84,3.25,9.18,8.23,17.27,14.96,24.28,6.73,7.03,14.62,13.03,23.67,18.02,9.05,4.99,18.76,9.29,29.14,12.9l-42.16,9.46c20.01-13.75,35.23-24.75,45.66-33,10.42-8.24,22.12-14.65,35.06-19.23,12.94-4.58,22.33-5.47,28.17-2.69,5.84,2.8,10.39,8.77,13.63,17.93,5.92,16.72,7.77,33.97,5.56,51.73-6.7-.05-13.79.49-21.27,1.61-7.49,1.14-15.55,3.23-24.17,6.28-17.26,6.11-32.89,14.23-46.91,24.34-14.02,10.12-27.09,19.91-39.22,29.35-12.13,9.45-24.94,16.56-38.41,21.33ZM183.39,194.58c15.15-8.06,29.51-9.7,43.06-4.92,13.56,4.77,25.3,16.5,35.24,35.19,4.83,9.09,11.14,23.38,18.93,42.9,7.79,19.5,16.49,42.57,26.12,69.2,9.63,26.61,19.74,54.76,30.34,84.45,10.6,29.67,20.88,59.35,30.84,89.04,9.96,29.69,19.42,57.53,28.4,83.54,8.97,25.99,16.44,48.26,22.41,66.8,5.97,18.53,10.33,31.59,13.08,39.21l-29.66-19.21,81.02,31.74c-7.25,16.81-17.41,32.42-30.49,46.83-13.07,14.39-26.16,25.09-39.3,32.08-12.62,6.71-23.89,8.97-33.8,6.8-9.91-2.19-17.95-9.08-24.13-20.69-4.57-8.59-10.24-23.22-17.03-43.9-6.78-20.69-14.44-45.13-22.96-73.31-8.51-28.19-17.79-58.73-27.83-91.61-10.04-32.89-20.59-65.82-31.66-98.81-11.06-32.99-22.48-64.5-34.24-94.52-11.75-30.04-23.68-56.4-35.77-79.13-6.45-12.12-12.18-21.39-17.2-27.78-5.02-6.41-9.88-11.27-14.57-14.6-4.69-3.34-9.87-6.09-15.56-8.25,4.6-10.86,10.8-20.81,18.63-29.83,7.83-9.03,16.56-16.09,26.14-21.19ZM13.33,500.74,0,459.63"/>
</svg>